<svg width="1200" height="800" viewBox="0 0 1200 800" fill="none" xmlns="http://www.w3.org/2000/svg">
  <defs>
    <linearGradient id="bg" x1="0" y1="0" x2="1" y2="1">
      <stop offset="0" stop-color="#F8FAFF" />
      <stop offset="1" stop-color="#E9F0F8" />
    </linearGradient>
    <linearGradient id="panel" x1="0" y1="0" x2="1" y2="1">
      <stop offset="0" stop-color="#FFFFFF" />
      <stop offset="1" stop-color="#F3F6FB" />
    </linearGradient>
  </defs>
  <rect width="1200" height="800" rx="48" fill="url(#bg)" />
  <rect x="80" y="90" width="1040" height="620" rx="36" fill="url(#panel)" stroke="#D6DEE9" />
  <rect x="140" y="140" width="260" height="110" rx="18" fill="#FFFFFF" stroke="#D6DEE9" />
  <rect x="170" y="170" width="200" height="10" rx="5" fill="#CBD5E1" />
  <rect x="170" y="192" width="120" height="10" rx="5" fill="#E2E8F0" />
  <rect x="170" y="214" width="160" height="10" rx="5" fill="#E2E8F0" />
  <rect x="820" y="140" width="240" height="140" rx="20" fill="#0B3E71" />
  <rect x="850" y="170" width="120" height="14" rx="7" fill="#CFE3FF" />
  <rect x="850" y="198" width="160" height="10" rx="5" fill="#E2E8F0" />
  <rect x="850" y="220" width="90" height="10" rx="5" fill="#E2E8F0" />
  <rect x="160" y="520" width="880" height="26" rx="13" fill="#1F8A5B" opacity="0.18" />
  <rect x="260" y="360" width="680" height="160" rx="80" fill="#0B3E71" />
  <rect x="320" y="320" width="560" height="80" rx="40" fill="#114E8A" />
  <rect x="360" y="380" width="180" height="44" rx="22" fill="#EEF2FF" />
  <rect x="660" y="380" width="180" height="44" rx="22" fill="#EEF2FF" />
  <circle cx="360" cy="540" r="36" fill="#0F172A" />
  <circle cx="360" cy="540" r="18" fill="#F8FAFF" />
  <circle cx="840" cy="540" r="36" fill="#0F172A" />
  <circle cx="840" cy="540" r="18" fill="#F8FAFF" />
  <rect x="160" y="600" width="300" height="70" rx="18" fill="#FFFFFF" stroke="#D6DEE9" />
  <rect x="190" y="626" width="140" height="10" rx="5" fill="#CBD5E1" />
  <rect x="190" y="646" width="200" height="8" rx="4" fill="#E2E8F0" />
  <rect x="520" y="600" width="240" height="70" rx="18" fill="#FFFFFF" stroke="#D6DEE9" />
  <rect x="548" y="628" width="120" height="10" rx="5" fill="#CBD5E1" />
  <rect x="548" y="648" width="160" height="8" rx="4" fill="#E2E8F0" />
  <rect x="820" y="600" width="240" height="70" rx="18" fill="#FFFFFF" stroke="#D6DEE9" />
  <rect x="848" y="628" width="120" height="10" rx="5" fill="#CBD5E1" />
  <rect x="848" y="648" width="160" height="8" rx="4" fill="#E2E8F0" />
</svg>
